<?xml version="1.0" encoding="utf-8"?>
<!-- Generator: Adobe Illustrator 19.0.0, SVG Export Plug-In . SVG Version: 6.00 Build 0)  -->
<svg version="1.1" id="Capa_1" xmlns="http://www.w3.org/2000/svg" xmlns:xlink="http://www.w3.org/1999/xlink" x="0px" y="0px"
	 viewBox="0 0 155 69.9" style="enable-background:new 0 0 155 69.9;" xml:space="preserve">
<style type="text/css">
	.st0{fill:#C53D1A;}
	.st1{fill:#F0BD5F;}
	.st2{fill:#223869;}
	.st3{fill:#4DAACA;}
	.st4{fill:#FFFFFF;}
</style>
<g id="XMLID_92_">
	<path id="XMLID_97_" class="st0" d="M15.8,26.5l0.1-7.8c2.1-1.2,3.5-3.5,3.5-5.9c0-2.6-1.4-4.8-3.9-6l-1.2-0.6l0,6.1l-1.7,1.1
		l-1.7-1.2l0-6.1L9.5,6.8C7,8,5.5,10.2,5.5,12.8c0,2.5,1.3,4.7,3.4,6l-0.1,7.8 M10.6,26.5l0.1-8.8l-0.5-0.2
		c-1.8-0.9-2.9-2.7-2.9-4.7C7.3,11,8.1,9.9,9,9.2l0,4.1l3.4,2.3l3.5-2.3l0-4.1c0.9,0.7,1.7,1.9,1.7,3.6c0,2-1.2,3.8-3,4.7l-0.5,0.2
		L14,26.5 M12.4,60.9c-1.8,0-3.3-1.5-3.3-3.3s1.5-3.3,3.3-3.3c1.8,0,3.3,1.5,3.3,3.3S14.2,60.9,12.4,60.9L12.4,60.9z M12.4,60.9
		 M9.1,25.9H7.4c-0.9,0-1.7,0.7-1.7,1.7c0,0.6,0.2,1.2,0.5,1.7c-1.2,0.2-2.1,1.2-2.1,2.5c0,0.6,0.2,1.2,0.6,1.7
		c-0.4,0.4-0.6,1-0.6,1.7c0,0.6,0.2,1.2,0.6,1.7c-0.4,0.4-0.6,1-0.6,1.7c0,0.6,0.2,1.2,0.6,1.7c-0.4,0.4-0.6,1-0.6,1.7
		c0,1.4,1.1,2.5,2.5,2.5h2.5v7.6c-2,1.2-3.3,3.4-3.3,5.7c0,3.7,3,6.6,6.6,6.6c3.7,0,6.6-3,6.6-6.6c0-2.4-1.3-4.6-3.3-5.7v-7.7
		c0.8,0,1.6-0.2,2.3-0.6l2.1-1h1.5v-1.7h-1.9l-2.4,1.2c-0.5,0.2-1,0.4-1.5,0.4V31.8c0.9,0.5,1.9,0.8,2.9,0.8h1.3v-1.7h-1.3
		c-1.1,0-2.1-0.4-2.9-1.2l-0.4-0.4H9.1c-0.9,0-1.7-0.7-1.7-1.7h8.7c1.1,0,2.1,0.4,2.9,1.2l0,0l0.4,0.4h2.1v-1.7h-1.4
		c-1.1-1.1-2.5-1.7-4.1-1.7h-0.4 M5.8,38.4c0-0.5,0.4-0.8,0.8-0.8h3.3c0.5,0,0.8,0.4,0.8,0.8s-0.4,0.8-0.8,0.8H6.6
		C6.1,39.2,5.8,38.8,5.8,38.4L5.8,38.4z M10.7,35.1c0,0.5-0.4,0.8-0.8,0.8H6.6c-0.5,0-0.8-0.4-0.8-0.8c0-0.5,0.4-0.8,0.8-0.8h3.3
		C10.4,34.2,10.7,34.6,10.7,35.1L10.7,35.1z M5.8,41.7c0-0.5,0.4-0.8,0.8-0.8h3.3c0.5,0,0.8,0.4,0.8,0.8s-0.4,0.8-0.8,0.8H6.6
		C6.1,42.5,5.8,42.1,5.8,41.7L5.8,41.7z M17.4,57.6c0,2.7-2.2,5-5,5c-2.7,0-5-2.2-5-5c0-1.9,1.1-3.7,2.8-4.5l0.5-0.2V44
		c1-0.3,1.7-1.3,1.7-2.3c0-0.6-0.2-1.2-0.6-1.7c0.4-0.4,0.6-1,0.6-1.7c0-0.6-0.2-1.2-0.6-1.7c0.4-0.4,0.6-1,0.6-1.7
		c0-0.6-0.2-1.2-0.6-1.7c0.4-0.4,0.6-1,0.6-1.7c0-0.3-0.1-0.6-0.2-0.8h1.8v21.9l0.5,0.2C16.3,53.9,17.4,55.7,17.4,57.6L17.4,57.6z
		 M9.9,30.9c0.5,0,0.8,0.4,0.8,0.8c0,0.5-0.4,0.8-0.8,0.8H6.6c-0.5,0-0.8-0.4-0.8-0.8c0-0.5,0.4-0.8,0.8-0.8H9.9z M14.1,25.9h-3.3
		 M22.2,25.9h2.8c0.4,0,0.7,0.3,0.7,0.7v16.9c0,0.4-0.3,0.7-0.7,0.7h-2.8c-0.4,0-0.7-0.3-0.7-0.7V26.6
		C21.5,26.2,21.8,25.9,22.2,25.9z"/>
	<path id="XMLID_94_" class="st1" d="M12.4,60.9c-1.8,0-3.3-1.5-3.3-3.3s1.5-3.3,3.3-3.3c1.8,0,3.3,1.5,3.3,3.3S14.2,60.9,12.4,60.9
		L12.4,60.9z M12.4,60.9"/>
	<path id="XMLID_23_" class="st2" d="M22.2,25.9h2.8c0.4,0,0.7,0.3,0.7,0.7v16.9c0,0.4-0.3,0.7-0.7,0.7h-2.8c-0.4,0-0.7-0.3-0.7-0.7
		V26.6C21.5,26.2,21.8,25.9,22.2,25.9z"/>
</g>
<g id="XMLID_39_">
	<path id="XMLID_118_" class="st0" d="M33.1,12l1.1-1.1c0.4,0.6,1.1,1.2,2.2,1.2c0.7,0,1.1-0.4,1.1-0.8c0-0.3-0.2-0.7-1-0.8
		l-0.6-0.1c-1.3-0.2-2.2-1-2.2-2.1c0-1.3,1-2.3,2.7-2.3c1.1,0,2.1,0.5,2.6,1.2l-1,1.1c-0.4-0.5-1-0.8-1.6-0.8c-0.6,0-1,0.3-1,0.7
		c0,0.3,0.2,0.6,0.8,0.7l0.6,0.1c1.5,0.2,2.4,1,2.4,2.3c0,1.5-1.2,2.4-2.9,2.4C34.6,13.6,33.7,12.8,33.1,12z"/>
	<path id="XMLID_120_" class="st0" d="M40.8,10.7c0-1.8,1.2-3,2.9-3c1.6,0,2.7,1.1,2.7,2.7c0,0.2,0,0.5-0.1,0.7h-3.9
		c0.1,0.6,0.6,1.1,1.5,1.1c0.6,0,1.2-0.4,1.4-0.7l0.9,1.1c-0.5,0.6-1.3,1-2.4,1C41.9,13.6,40.8,12.3,40.8,10.7z M42.5,9.9h2.3
		C44.7,9.3,44.3,9,43.7,9C43.1,9,42.6,9.3,42.5,9.9z"/>
	<path id="XMLID_123_" class="st0" d="M48.2,7.8h1.6v0.8c0.3-0.6,0.8-0.9,1.5-0.9h0.2v1.5c-0.8,0-1.4,0.2-1.7,1v3.2h-1.6V7.8z"/>
	<path id="XMLID_125_" class="st0" d="M52.6,7.8h1.7l1.3,3.6l1.3-3.6h1.7l-2.2,5.6h-1.6L52.6,7.8z"/>
	<path id="XMLID_127_" class="st0" d="M60.2,5.5h1.6v1.6h-1.6V5.5z M60.2,7.8h1.6v5.6h-1.6V7.8z"/>
	<path id="XMLID_130_" class="st0" d="M63.7,10.6c0-1.5,1-2.9,3-2.9c1.1,0,1.9,0.5,2.5,1.4L68,10c-0.3-0.5-0.7-0.8-1.3-0.8
		c-0.9,0-1.4,0.6-1.4,1.5c0,0.9,0.5,1.5,1.4,1.5c0.6,0,1-0.4,1.3-0.8l1.1,0.9c-0.6,0.9-1.4,1.4-2.5,1.4
		C64.7,13.6,63.7,12.1,63.7,10.6z"/>
	<path id="XMLID_132_" class="st0" d="M70.9,5.5h1.6v1.6h-1.6V5.5z M70.9,7.8h1.6v5.6h-1.6V7.8z"/>
	<path id="XMLID_135_" class="st0" d="M74.3,10.7c0-1.5,1-3,3-3s3,1.5,3,3c0,1.5-1,3-3,3S74.3,12.1,74.3,10.7z M78.7,10.7
		c0-0.9-0.6-1.5-1.4-1.5S76,9.7,76,10.7c0,0.9,0.6,1.5,1.4,1.5S78.7,11.6,78.7,10.7z"/>
	<path id="XMLID_138_" class="st0" d="M81.7,12.6l0.8-1c0.4,0.4,1,0.8,1.6,0.8c0.5,0,0.8-0.2,0.8-0.5c0-0.3-0.3-0.4-0.7-0.5
		l-0.5-0.1c-1.1-0.2-1.7-0.8-1.7-1.7c0-1,0.9-1.8,2.3-1.8c0.9,0,1.6,0.4,2,0.8l-0.8,1C85.2,9.2,84.8,9,84.3,9
		c-0.4,0-0.6,0.2-0.6,0.4c0,0.2,0.1,0.3,0.5,0.4l0.5,0.1c1.3,0.2,1.9,0.8,1.9,1.8c0,1-0.9,1.9-2.5,1.9C83,13.6,82.2,13.2,81.7,12.6z
		"/>
</g>
<path id="XMLID_10_" class="st3" d="M149.7,62.8H36c-1.8,0-3.3-1.5-3.3-3.3V45.9c0-1.8,1.5-3.3,3.3-3.3h113.8c1.8,0,3.3,1.5,3.3,3.3
	v13.6C153,61.3,151.5,62.8,149.7,62.8z"/>
<g id="XMLID_53_">
	<g id="XMLID_223_">
		<path id="XMLID_238_" class="st4" d="M45.3,52.7c0-4,2.1-6.4,5.4-6.4c1.9,0,3.2,0.9,4,2l-1.5,1.3c-0.5-0.8-1.4-1.3-2.5-1.3
			c-1.6,0-2.9,1.1-3.1,3.2c0.7-0.8,1.7-1.3,3-1.3c2.2,0,4.1,1.6,4.1,4.1s-2,4.2-4.5,4.2C47,58.5,45.3,56.1,45.3,52.7z M52.4,54.4
			c0-1.2-0.9-2.1-2.3-2.1c-1.4,0-2.3,1-2.3,2.1c0,1.1,0.9,2.1,2.3,2.1C51.6,56.5,52.4,55.5,52.4,54.4z"/>
		<path id="XMLID_236_" class="st4" d="M62.3,49.1l-2.1,1.2l-0.8-1.7l3.5-2h1.6v11.7h-2.2V49.1z"/>
		<path id="XMLID_234_" class="st4" d="M70.3,56.6c1.4-2.8,5.8-4,5.8-6.3c0-1-0.5-1.9-2-1.9c-1.1,0-1.8,0.6-2.1,1.6L70.3,49
			c0.4-1.2,1.5-2.7,3.9-2.7c2.6,0,4.1,1.7,4.1,3.8c0,3.4-4.1,4.7-5.1,6.2h5.4v2h-8.2V56.6z"/>
		<path id="XMLID_232_" class="st4" d="M83.8,52.2h5v1.8h-5V52.2z"/>
		<path id="XMLID_230_" class="st4" d="M94.1,58.2l4.6-9.7H93v-2h8.3v1.6l-4.7,10.1L94.1,58.2L94.1,58.2z"/>
		<path id="XMLID_228_" class="st4" d="M106.8,58.2l4.6-9.7h-5.8v-2h8.3v1.6l-4.7,10.1L106.8,58.2L106.8,58.2z"/>
		<path id="XMLID_226_" class="st4" d="M118.7,56.6c1.4-2.8,5.8-4,5.8-6.3c0-1-0.5-1.9-2-1.9c-1.1,0-1.8,0.6-2.1,1.6l-1.7-0.9
			c0.4-1.2,1.5-2.7,3.9-2.7c2.6,0,4.1,1.7,4.1,3.8c0,3.4-4.1,4.7-5.1,6.2h5.4v2h-8.2V56.6z"/>
		<path id="XMLID_224_" class="st4" d="M132.1,56.6c1.4-2.8,5.8-4,5.8-6.3c0-1-0.5-1.9-2-1.9c-1.1,0-1.8,0.6-2.1,1.6l-1.7-0.9
			c0.4-1.2,1.5-2.7,3.9-2.7c2.6,0,4.1,1.7,4.1,3.8c0,3.4-4.1,4.7-5.1,6.2h5.4v2h-8.2V56.6z"/>
	</g>
</g>
<g id="XMLID_40_">
	<g id="XMLID_41_">
		<polygon id="XMLID_22_" class="st2" points="45.2,19.3 45.2,25.8 37.7,25.8 37.7,19.3 33.6,19.3 33.6,36.5 37.7,36.5 37.7,29.6 
			45.2,29.6 45.2,36.5 49.3,36.5 49.3,19.3 49.1,19.3 		"/>
		<polygon id="XMLID_21_" class="st2" points="64.4,19.3 60.1,26.1 55.8,19.3 50.9,19.3 58,30.6 58,36.5 62.1,36.5 62.1,30.6 
			69.2,19.3 68.9,19.3 		"/>
		<path id="XMLID_20_" class="st2" d="M82.5,19.3v12.7c0,0.5-0.4,0.9-0.9,0.9H75V19.3h-4.1v17.3H83c1.1,0,2-0.3,2.6-1
			c0.6-0.6,1-1.5,1-2.6V19.3h-0.2H82.5z"/>
		<path id="XMLID_19_" class="st2" d="M102.5,19.3H90.4v17.3h4.1V23h6.6c0.5,0,0.9,0.4,0.9,0.9v12.7h4.1V22.8c0-1.1-0.3-1.9-0.9-2.6
			C104.5,19.6,103.6,19.3,102.5,19.3"/>
		<path id="XMLID_16_" class="st2" d="M121.4,23.9v8c0,0.5-0.3,0.9-0.9,0.9H114V23h6.6C121.1,23,121.4,23.4,121.4,23.9 M122,19.3
			h-12.1v17.3H122c1.1,0,1.9-0.3,2.6-1c0.6-0.6,1-1.5,1-2.6V22.8c0-1.1-0.3-1.9-1-2.6C124,19.6,123.1,19.3,122,19.3"/>
		<path id="XMLID_13_" class="st2" d="M140.7,23v4.5h-7.5v-3.6c0-0.4,0.3-0.9,0.9-0.9H140.7 M132.7,19.3c-1.1,0-1.9,0.3-2.6,1
			c-0.6,0.6-1,1.5-1,2.6v13.7h4.1v-5.3h7.5v5.3h4.1V19.3h-0.2H132.7z"/>
		<polygon id="XMLID_12_" class="st2" points="152.8,19.3 148.9,19.3 148.9,36.5 153,36.5 153,19.3 		"/>
	</g>
</g>
<g id="XMLID_11_">
</g>
<g id="XMLID_140_">
</g>
<g id="XMLID_141_">
</g>
<g id="XMLID_142_">
</g>
<g id="XMLID_143_">
</g>
<g id="XMLID_144_">
</g>
</svg>
