<?xml version="1.0" encoding="utf-8"?>
<!-- Generator: Adobe Illustrator 17.0.0, SVG Export Plug-In . SVG Version: 6.00 Build 0)  -->
<!DOCTYPE svg PUBLIC "-//W3C//DTD SVG 1.1//EN" "http://www.w3.org/Graphics/SVG/1.1/DTD/svg11.dtd">
<svg version="1.1" id="Layer_1" xmlns="http://www.w3.org/2000/svg" xmlns:xlink="http://www.w3.org/1999/xlink" x="0px" y="0px"
	 width="148px" height="30px" viewBox="0 0 148 30" enable-background="new 0 0 148 30" xml:space="preserve">
<g>
	<g>
		<path id="XMLID_286_" fill="#00336B" d="M17.664,13.65c0.387,0,0.827-0.05,1.271-0.143c1.615-0.342,3.186-0.913,4.641-1.479
			c3.925-1.493,5.848-2.972,6.343-3.388c0.096-0.076,0.157-0.127,0.19-0.165c0.098-0.095,0.206-0.227,0.206-0.422
			c0-0.362-0.42-0.475-0.671-0.544c-0.027-0.008-0.057-0.015-0.081-0.025c-2.898-0.865-6.256-1.323-9.708-1.323h-0.205
			c-0.513,0.019-0.995,0.131-1.367,0.314c-1.215,0.605-1.799,2.006-2.147,2.845c-0.038,0.087-0.072,0.167-0.101,0.239
			c-0.646,1.498-0.748,2.607-0.295,3.297C16.089,13.382,16.736,13.65,17.664,13.65 M16.293,9.672
			c0.032-0.076,0.067-0.156,0.105-0.243c0.333-0.802,0.889-2.143,2.012-2.701c0.335-0.165,0.777-0.266,1.249-0.286h0.198
			c3.424,0,6.754,0.456,9.628,1.315c0.027,0.008,0.056,0.017,0.088,0.024c0.173,0.047,0.463,0.127,0.463,0.271
			c0,0.073-0.035,0.133-0.129,0.226c-0.03,0.032-0.077,0.075-0.164,0.143c-0.49,0.41-2.382,1.864-6.268,3.341
			c-1.442,0.563-3,1.132-4.595,1.469c-0.428,0.089-0.846,0.134-1.214,0.134c-0.828,0-1.394-0.222-1.685-0.666
			C15.582,12.095,15.69,11.075,16.293,9.672"/>
		<path id="XMLID_283_" fill="#00336B" d="M19.796,4.551C8.882,4.551,0,9.122,0,14.742c0,5.619,8.882,10.189,19.796,10.189
			c10.918,0,19.797-4.57,19.797-10.189C39.592,9.122,30.714,4.551,19.796,4.551 M19.796,24.623c-10.745,0-19.487-4.433-19.487-9.882
			c0-5.45,8.742-9.883,19.487-9.883c10.748,0,19.49,4.433,19.49,9.883C39.285,20.19,30.543,24.623,19.796,24.623"/>
		<path id="XMLID_280_" fill="#00336B" d="M13.558,7.424c0.126-0.207,0.073-0.386-0.012-0.473c-0.133-0.156-0.455-0.175-0.96-0.073
			C5.938,8.227,1.641,11.311,1.641,14.742c0,1.885,1.313,3.688,3.793,5.214c0.179,0.104,0.335,0.155,0.489,0.155h0.001
			c0.237-0.018,0.356-0.159,0.446-0.304c0.035-0.061,0.081-0.157,0.129-0.255l0.037-0.078c2.159-5,4.523-9.078,6.841-11.802
			C13.462,7.567,13.509,7.501,13.558,7.424 M13.314,7.276c-0.041,0.068-0.083,0.128-0.155,0.217
			c-2.334,2.741-4.715,6.844-6.882,11.863l-0.034,0.071c-0.044,0.096-0.084,0.184-0.114,0.234c-0.076,0.117-0.133,0.161-0.214,0.166
			c-0.093,0-0.203-0.036-0.332-0.112c-2.392-1.473-3.657-3.193-3.657-4.974c0-3.289,4.207-6.266,10.718-7.587
			c0.185-0.037,0.347-0.057,0.473-0.057c0.173,0,0.209,0.036,0.209,0.036C13.36,7.165,13.352,7.217,13.314,7.276"/>
		<path id="XMLID_277_" fill="#00336B" d="M21.993,15.815c-0.386,0-0.826,0.05-1.274,0.143c-1.693,0.356-3.309,0.968-4.6,1.461
			l-0.036,0.015c-3.94,1.5-5.859,2.979-6.357,3.399c-0.029,0.029-0.058,0.051-0.084,0.074c-0.039,0.032-0.071,0.06-0.098,0.086
			c-0.085,0.084-0.2,0.221-0.2,0.417c0,0.366,0.464,0.498,0.712,0.569l0.047,0.016c2.895,0.856,6.249,1.309,9.7,1.309h0.022
			c0.022,0,0.051,0.003,0.086,0.003c0.027,0,0.061,0,0.087-0.003c0.488-0.008,0.987-0.124,1.374-0.309
			c1.227-0.613,1.808-2.026,2.157-2.868c0.03-0.079,0.062-0.152,0.089-0.217c0.65-1.499,0.745-2.609,0.294-3.299
			C23.567,16.083,22.922,15.815,21.993,15.815 M23.36,19.797c-0.028,0.065-0.058,0.14-0.09,0.22
			c-0.335,0.806-0.892,2.157-2.02,2.722c-0.485,0.234-0.921,0.281-1.446,0.281c-3.422,0-6.749-0.45-9.617-1.297l-0.049-0.015
			c-0.154-0.044-0.512-0.147-0.512-0.298c0-0.072,0.034-0.133,0.119-0.216c0.022-0.022,0.05-0.044,0.082-0.073
			c0.028-0.022,0.056-0.048,0.085-0.076c0.488-0.408,2.371-1.863,6.272-3.346l0.036-0.015c1.287-0.488,2.887-1.097,4.559-1.448
			c0.429-0.09,0.848-0.138,1.214-0.138c0.825,0,1.391,0.226,1.684,0.667C24.074,17.37,23.966,18.39,23.36,19.797"/>
		<path id="XMLID_274_" fill="#00336B" d="M34.219,9.523c-0.171-0.105-0.309-0.155-0.433-0.155c-0.025,0-0.046,0.003-0.046,0.003
			c-0.203,0.01-0.352,0.115-0.449,0.301c-0.063,0.1-0.134,0.244-0.171,0.327c-1.207,2.824-3.702,8.11-6.845,11.806
			c-0.084,0.1-0.134,0.167-0.179,0.252c-0.104,0.174-0.098,0.351,0.015,0.478c0.078,0.086,0.208,0.129,0.4,0.129
			c0.133,0,0.299-0.02,0.506-0.06c6.646-1.359,10.941-4.443,10.941-7.867C37.959,12.831,36.666,11.028,34.219,9.523 M26.964,22.329
			c-0.187,0.035-0.338,0.051-0.452,0.051c-0.154,0-0.189-0.032-0.189-0.032c-0.036-0.042-0.006-0.112,0.021-0.153
			c0.033-0.059,0.067-0.109,0.149-0.206c3.169-3.726,5.674-9.042,6.884-11.873c0.057-0.123,0.112-0.229,0.161-0.304
			c0.057-0.109,0.115-0.153,0.219-0.16c0,0,0.018,0,0.029,0c0.069,0,0.161,0.036,0.284,0.112c2.36,1.449,3.61,3.169,3.61,4.973
			C37.68,18.019,33.471,20.998,26.964,22.329"/>
		<path id="XMLID_268_" fill="#00336B" d="M19.795,24.765c10.843,0,19.632-4.487,19.632-10.024c0-5.535-8.789-10.023-19.632-10.023
			c-10.834,0-19.629,4.488-19.629,10.023C0.166,20.278,8.961,24.765,19.795,24.765 M23.49,19.853
			c-0.321,0.752-0.89,2.369-2.183,3.012c-0.389,0.19-0.873,0.286-1.312,0.296c-0.094,0.007-0.164,0-0.192,0
			c-3.552,0-6.87-0.478-9.659-1.305c-0.204-0.061-0.658-0.17-0.658-0.447c0-0.127,0.065-0.224,0.16-0.317
			c0.041-0.04,0.099-0.087,0.178-0.154c0.646-0.55,2.618-1.967,6.311-3.372c1.298-0.494,2.917-1.113,4.616-1.47
			C21.752,15.886,25.447,15.327,23.49,19.853 M33.41,9.75c0.065-0.128,0.161-0.229,0.33-0.237c0.096-0.012,0.214,0.012,0.403,0.129
			c2.307,1.42,3.673,3.18,3.673,5.095c0,3.461-4.452,6.428-10.823,7.729c-0.415,0.08-0.683,0.08-0.776-0.025
			c-0.063-0.069-0.079-0.178,0-0.313c0.041-0.075,0.083-0.134,0.167-0.232c3.47-4.084,6.12-10.096,6.863-11.839
			C33.303,9.942,33.365,9.823,33.41,9.75 M16.166,9.615c0.322-0.751,0.884-2.37,2.18-3.015c0.394-0.194,0.881-0.282,1.311-0.299
			h0.199c3.562,0,6.875,0.484,9.672,1.32c0.202,0.062,0.648,0.143,0.648,0.431c0,0.131-0.071,0.228-0.163,0.319
			c-0.038,0.044-0.099,0.093-0.179,0.156c-0.652,0.548-2.614,1.962-6.307,3.367c-1.298,0.505-2.927,1.114-4.619,1.475
			C17.905,13.579,14.211,14.138,16.166,9.615 M12.615,7.017c0.413-0.084,0.727-0.084,0.819,0.025c0.061,0.062,0.086,0.174,0,0.308
			C13.391,7.42,13.35,7.484,13.27,7.586c-3.475,4.078-6.115,10.098-6.865,11.832c-0.057,0.123-0.115,0.245-0.157,0.321
			c-0.078,0.123-0.166,0.219-0.334,0.23c-0.085,0-0.215-0.022-0.405-0.134c-2.301-1.415-3.725-3.181-3.725-5.093
			C1.784,11.284,6.247,8.309,12.615,7.017"/>
		<polygon id="XMLID_267_" fill="#00336B" points="56.951,7.464 56.951,12.949 50.731,12.949 50.731,7.464 47.304,7.464 
			47.304,21.863 50.731,21.863 50.731,16.071 56.951,16.071 56.951,21.863 60.377,21.863 60.377,7.464 60.203,7.464 		"/>
		<polygon id="XMLID_266_" fill="#00336B" points="72.943,7.464 69.359,13.166 65.776,7.464 61.731,7.464 67.647,16.877 
			67.647,21.863 71.072,21.863 71.072,16.877 76.985,7.464 76.673,7.464 		"/>
		<path id="XMLID_265_" fill="#00336B" d="M88.008,7.464v10.553c0,0.402-0.3,0.727-0.727,0.727H81.79V7.464h-3.425v14.399h10.122
			c0.901,0,1.627-0.268,2.154-0.792c0.527-0.529,0.792-1.253,0.792-2.151V7.464H91.26H88.008z"/>
		<path id="XMLID_264_" fill="#00336B" d="M104.737,7.464H94.609v14.399h3.425V10.582h5.499c0.44,0,0.725,0.345,0.725,0.72v10.561
			h3.422V10.409c0-0.9-0.266-1.625-0.791-2.15C106.359,7.731,105.635,7.464,104.737,7.464"/>
		<path id="XMLID_261_" fill="#00336B" d="M120.499,11.329v6.671c0,0.388-0.285,0.743-0.731,0.743h-5.488v-8.162h5.468
			C120.195,10.582,120.499,10.898,120.499,11.329 M120.98,7.464h-10.123v14.399h10.123c0.902,0,1.624-0.268,2.151-0.792
			c0.527-0.527,0.794-1.25,0.794-2.151v-8.51c0-0.9-0.267-1.625-0.795-2.15C122.603,7.731,121.88,7.464,120.98,7.464"/>
		<path id="XMLID_258_" fill="#00336B" d="M136.593,10.582v3.709h-6.221v-2.976c0-0.357,0.272-0.733,0.728-0.733H136.593
			 M129.893,7.464c-0.9,0-1.625,0.267-2.149,0.797c-0.526,0.526-0.794,1.25-0.794,2.148v11.454h3.423V17.41h6.221v4.453h3.424V7.464
			h-0.173H129.893z"/>
		<polygon id="XMLID_257_" fill="#00336B" points="146.605,7.464 143.354,7.464 143.354,21.863 146.778,21.863 146.778,7.464 		"/>
	</g>
</g>
</svg>
